<svg xmlns="http://www.w3.org/2000/svg" xmlns:xlink="http://www.w3.org/1999/xlink" version="1.1" x="0px" y="0px" viewBox="0 0 100 100" enable-background="new 0 0 100 100" xml:space="preserve"><path fill="white" d="M52.5,15.083v-3.109h-5v3.109c-22.274,1.299-40,19.826-40,42.42h5c0-4.625,4.561-8.389,10.166-8.389  s10.166,3.763,10.166,8.389h0.274h0.895h3h0.831h0.274c0-3.944,4.1-7.353,9.394-8.189v31.489c0,2.604-2.029,4.722-4.523,4.722  c-2.495,0-4.524-2.118-4.524-4.722h-5c0,5.36,4.272,9.722,9.524,9.722c5.251,0,9.522-4.361,9.523-9.721l0,0v-31.49  c5.292,0.836,9.391,4.245,9.391,8.189h0.278H63h3h0.891h0.278c0-4.625,4.561-8.389,10.166-8.389S87.5,52.878,87.5,57.504h5  C92.5,34.909,74.774,16.383,52.5,15.083z M22.666,44.115c-3.145,0-6.067,0.85-8.492,2.302c4.01-12.932,14.843-22.892,28.272-25.649  c-4.142,5.636-7.158,15.83-8.118,28.188C31.543,46.001,27.351,44.115,22.666,44.115z M50,44.115c-5.006,0-9.495,1.744-12.592,4.494  c1.151-12.791,4.672-24.819,9.533-28.47c1.01-0.082,2.028-0.135,3.059-0.135c1.031,0,2.049,0.053,3.059,0.135  c4.862,3.651,8.384,15.682,9.534,28.473C59.497,45.861,55.006,44.115,50,44.115z M77.335,44.115c-4.685,0-8.878,1.886-11.662,4.842  c-0.96-12.358-3.977-22.553-8.119-28.188c13.43,2.757,24.263,12.717,28.272,25.648C83.401,44.965,80.479,44.115,77.335,44.115z"></path></svg>